<mxfile host="app.diagrams.net" modified="2023-11-06T08:28:55.740Z" agent="Mozilla/5.0 (Windows NT 10.0; Win64; x64) AppleWebKit/537.36 (KHTML, like Gecko) Chrome/119.0.0.0 Safari/537.36 Edg/119.0.0.0" version="22.0.8" etag="vrhKhyR17brSLQIN_mV1" type="github">
  <diagram name="Page-1" id="blV3W7_KY0HIsKlPnaic">
    <mxGraphModel>
      <root>
        <mxCell id="0" />
        <mxCell id="1" parent="0" />
      </root>
    </mxGraphModel>
  </diagram>
</mxfile>
